<svg xmlns="http://www.w3.org/2000/svg" id="svg2076" width="682.66669" height="682.66669" viewBox="0 0 682.66669 682.66669">
	<defs id="defs2080">
		<clipPath clipPathUnits="userSpaceOnUse" id="clipPath2090">
			<path d="M 0,512 H 512 V 0 H 0 Z" id="path2088" />
		</clipPath>
	</defs>
	<g id="g2082" transform="matrix(1.3333333,0,0,-1.3333333,0,682.66667)">
		<g id="g2084">
			<g id="g2086" clipPath="url(#clipPath2090)">
				<g id="g2092" transform="translate(264.1602,378.4912)">
					<path d="M 0,0 C 13,10.28 28.63,16.12 45.55,8.59 58.63,2.76 68.7,-9.85 82.85,-12.07" style="fill:none;stroke:#000000;stroke-width:15;stroke-linecap:round;stroke-linejoin:round;stroke-miterlimit:10;stroke-dasharray:none;stroke-opacity:1" id="path2094" />
				</g>
				<g id="g2096" transform="translate(271.3301,358.0713)">
					<path d="m 0,0 c 22.5,0.79 40.939,-18.31 47.64,-39.83 4.98,-15.97 7.72,-33.56 18.95,-45.96" style="fill:none;stroke:#000000;stroke-width:15;stroke-linecap:round;stroke-linejoin:round;stroke-miterlimit:10;stroke-dasharray:none;stroke-opacity:1" id="path2098" />
				</g>
				<g id="g2100" transform="translate(237.9199,382.4814)">
					<path d="m 0,0 c 8.11,6.2 16.1,15.34 22.86,26.83 1.82,3.1 3.4,6.11 4.75,9.02" style="fill:none;stroke:#000000;stroke-width:15;stroke-linecap:round;stroke-linejoin:round;stroke-miterlimit:10;stroke-dasharray:none;stroke-opacity:1" id="path2102" />
				</g>
				<g id="g2104" transform="translate(140.0898,382.4814)">
					<path d="m 0,0 c -8.109,6.2 -16.1,15.34 -22.859,26.83 -17.691,30.1 -12.221,51.37 2.399,64.23 9.311,8.2 20.101,11 31.28,4.14 6.84,-4.19 14.9,-4.81 21.79,-0.74 5.031,2.97 10.54,4.61 16.31,4.61 5.77,0 11.27,-1.64 16.3,-4.61 6.89,-4.07 14.95,-3.45 21.801,0.74 11.179,6.86 21.959,4.06 31.279,-4.14 6.24,-5.5 10.82,-12.53 12.63,-21.13" style="fill:none;stroke:#000000;stroke-width:15;stroke-linecap:round;stroke-linejoin:round;stroke-miterlimit:10;stroke-dasharray:none;stroke-opacity:1" id="path2106" />
				</g>
				<g id="g2108" transform="translate(206.5703,382.4814)">
					<path d="M 0,0 C 1.989,5.16 3.92,11.81 5.609,19.72 7.239,27.36 8.27,34.38 8.79,40.75" style="fill:none;stroke:#000000;stroke-width:15;stroke-linecap:round;stroke-linejoin:round;stroke-miterlimit:10;stroke-dasharray:none;stroke-opacity:1" id="path2110" />
				</g>
				<g id="g2112" transform="translate(162.6699,423.2314)">
					<path d="m 0,0 c 0.51,-6.37 1.54,-13.39 3.17,-21.03 1.69,-7.91 3.61,-14.56 5.61,-19.72" style="fill:none;stroke:#000000;stroke-width:15;stroke-linecap:round;stroke-linejoin:round;stroke-miterlimit:10;stroke-dasharray:none;stroke-opacity:1" id="path2114" />
				</g>
				<g id="g2116" transform="translate(244.6504,343.2314)">
					<path d="m 0,0 c 0,0 125.859,-150.55 125.859,-211.61 0,-1.41 -0.029,-2.81 -0.08,-4.19" style="fill:none;stroke:#000000;stroke-width:15;stroke-linecap:round;stroke-linejoin:round;stroke-miterlimit:10;stroke-dasharray:none;stroke-opacity:1" id="path2118" />
				</g>
				<g id="g2120" transform="translate(277.4297,30.4512)">
					<path d="m 0,0 h -176.85 c -32.42,0 -93.08,32.85 -93.08,101.17 0,31.51 33.52,86.86 65.97,133.05" style="fill:none;stroke:#000000;stroke-width:15;stroke-linecap:round;stroke-linejoin:round;stroke-miterlimit:10;stroke-dasharray:none;stroke-opacity:1" id="path2122" />
				</g>
				<g id="g2124" transform="translate(133.3594,343.2314)">
					<path d="M 0,0 C 0,0 -17.279,-20.668 -39.032,-49.795" style="fill:none;stroke:#000000;stroke-width:15;stroke-linecap:round;stroke-linejoin:round;stroke-miterlimit:10;stroke-dasharray:none;stroke-opacity:1" id="path2126" />
				</g>
				<g id="g2128" transform="translate(151.0947,250.6719)">
					<path d="m 0,0 h 26.309 c 16.369,0.001 29.639,-13.266 29.639,-29.635 v -0.767 c 0,-17.022 -13.677,-30.7 -30.551,-30.7 H 9.826 c -3.97,0 -6.183,-4.586 -3.715,-7.693 l 45.788,-57.641" style="fill:none;stroke:#000000;stroke-width:15;stroke-linecap:round;stroke-linejoin:round;stroke-miterlimit:10;stroke-dasharray:none;stroke-opacity:1" id="path2130" />
				</g>
				<g id="g2132" transform="translate(167.29,250.6709)">
					<path d="M 0,0 H 59.629" style="fill:none;stroke:#000000;stroke-width:15;stroke-linecap:round;stroke-linejoin:round;stroke-miterlimit:10;stroke-dasharray:none;stroke-opacity:1" id="path2134" />
				</g>
				<g id="g2136" transform="translate(151.0947,220.1201)">
					<path d="M 0,0 H 75.824" style="fill:none;stroke:#000000;stroke-width:15;stroke-linecap:round;stroke-linejoin:round;stroke-miterlimit:10;stroke-dasharray:none;stroke-opacity:1" id="path2138" />
				</g>
				<g id="g2140" transform="translate(106.0889,362.8545)">
					<path d="m 0,0 c 0,-10.837 8.786,-19.623 19.623,-19.623 h 126.59 c 10.838,0 19.623,8.786 19.623,19.623 0,10.837 -8.785,19.623 -19.623,19.623 H 19.623 C 8.786,19.623 0,10.837 0,0 Z" style="fill:none;stroke:#000000;stroke-width:15;stroke-linecap:round;stroke-linejoin:round;stroke-miterlimit:10;stroke-dasharray:none;stroke-opacity:1" id="path2142" />
				</g>
				<g id="g2144" transform="translate(268.2109,78.9399)">
					<path d="m 0,0 c -13.391,0 -24.245,-10.856 -24.245,-24.247 0,-13.39 10.855,-24.245 24.246,-24.245 h 130.953 c 13.39,0 24.245,10.855 24.245,24.245 C 155.199,-10.856 144.342,0 130.951,0" style="fill:none;stroke:#000000;stroke-width:15;stroke-linecap:round;stroke-linejoin:round;stroke-miterlimit:10;stroke-dasharray:none;stroke-opacity:1" id="path2146" />
				</g>
				<g id="g2148" transform="translate(423.3496,104.7515)">
					<path d="m 0,0 c 0.04,-0.52 0.061,-1.04 0.061,-1.57 0,-13.39 -10.848,-24.242 -24.248,-24.242 h -130.952 c -13.39,0 -24.241,10.852 -24.241,24.242 0,13.39 10.851,24.25 24.24,24.25 h 130.951 c 4.979,0 9.599,-1.5 13.45,-4.07" style="fill:none;stroke:#000000;stroke-width:15;stroke-linecap:round;stroke-linejoin:round;stroke-miterlimit:10;stroke-dasharray:none;stroke-opacity:1" id="path2150" />
				</g>
				<g id="g2152" transform="translate(447.3965,160.0923)">
					<path d="m 0,0 -11.625,20.136 c -6.695,11.597 -21.524,15.57 -33.12,8.875 -11.597,-6.695 -15.57,-21.524 -8.875,-33.12 l 65.476,-113.409 c 6.696,-11.596 21.524,-15.569 33.121,-8.875 11.596,6.696 15.569,21.524 8.875,33.121 L 17.5,-30.311" style="fill:none;stroke:#000000;stroke-width:15;stroke-linecap:round;stroke-linejoin:round;stroke-miterlimit:10;stroke-dasharray:none;stroke-opacity:1" id="path2154" />
				</g>
			</g>
		</g>
	</g>
</svg>